<svg xmlns="http://www.w3.org/2000/svg" width="42" height="75" fill="none" viewBox="0 0 42 75"><path fill="#fff" d="M2.9292 44.2673L21.8921 34.9701C22.1725 34.8327 22.501 34.8341 22.7802 34.9739L41.3321 44.2673V62.7039C41.3321 63.0701 41.1319 63.407 40.8103 63.5822L22.3371 73.6408L3.4589 63.5803C3.13288 63.4066 2.9292 63.0673 2.9292 62.6978V44.2673Z"/><path stroke="#D8D8D8" d="M41.3321 44.2673L22.3371 54.1964M41.3321 44.2673L22.7802 34.9739C22.501 34.8341 22.1725 34.8327 21.8921 34.9701L2.9292 44.2673M41.3321 44.2673V62.7039C41.3321 63.0701 41.1319 63.407 40.8103 63.5822L22.3371 73.6408M22.3371 54.1964L2.9292 44.2673M22.3371 54.1964V73.6408M2.9292 44.2673V62.6978C2.9292 63.0673 3.13288 63.4066 3.4589 63.5803L22.3371 73.6408"/><line x1="22.174" x2="22.174" y1="34.752" y2="53.783" stroke="#D8D8D8" stroke-width=".5"/><path fill="#44E2C3" d="M21.1151 18.7507C21.3376 18.5213 21.7236 18.6061 21.8299 18.9075L25.3998 29.0241C25.5125 29.3434 25.2296 29.6617 24.8994 29.5871L13.923 27.106C13.5951 27.0319 13.4746 26.6273 13.7086 26.3861L21.1151 18.7507Z"/><path fill="url(#paint0_linear_1626_5976)" fill-opacity=".65" d="M21.1151 18.7507C21.3376 18.5213 21.7236 18.6061 21.8299 18.9075L25.3998 29.0241C25.5125 29.3434 25.2296 29.6617 24.8994 29.5871L13.923 27.106C13.5951 27.0319 13.4746 26.6273 13.7086 26.3861L21.1151 18.7507Z"/><path fill="#6557FF" d="M7.09882 13.9258C7.09882 17.3969 4.29029 20.2107 0.825684 20.2107C4.29029 20.2107 7.09882 23.0246 7.09882 26.4957C7.09882 23.0246 9.90736 20.2107 13.372 20.2107C9.90736 20.2107 7.09882 17.3969 7.09882 13.9258Z"/><path fill="#6557FF" d="M27.723 1.40527C27.723 3.74258 25.8385 5.63735 23.5137 5.63735C25.8385 5.63735 27.723 7.53212 27.723 9.86943C27.723 7.53212 29.6076 5.63735 31.9324 5.63735C29.6076 5.63735 27.723 3.74258 27.723 1.40527Z"/><path fill="url(#paint1_linear_1626_5976)" fill-opacity=".6" d="M27.723 1.40527C27.723 3.74258 25.8385 5.63735 23.5137 5.63735C25.8385 5.63735 27.723 7.53212 27.723 9.86943C27.723 7.53212 29.6076 5.63735 31.9324 5.63735C29.6076 5.63735 27.723 3.74258 27.723 1.40527Z"/><g filter="url(#filter0_d_1626_5976)"><path fill="#6557FF" d="M30.2253 30.2244C30.1994 30.1371 30.2484 30.0454 30.3348 30.0197L34.2616 28.8502C34.348 28.8244 34.439 28.8744 34.4649 28.9617L37.6594 39.7278C37.6853 39.8151 37.6362 39.9068 37.5498 39.9325L33.623 41.102C33.5366 41.1278 33.4456 41.0778 33.4197 40.9905L30.2253 30.2244Z"/><path fill="#6557FF" d="M27.6284 34.9552C27.6025 34.8679 27.6515 34.7763 27.7379 34.7506L34.9495 32.6028C35.0358 32.577 35.1269 32.6269 35.1528 32.7143L37.2683 39.8443C37.2942 39.9316 37.2452 40.0232 37.1588 40.049L29.9472 42.1968C29.8608 42.2225 29.7698 42.1726 29.7439 42.0853L27.6284 34.9552Z"/><path fill="#6557FF" d="M25.2739 39.3558C25.248 39.2685 25.297 39.1768 25.3834 39.1511L36.349 35.8853C36.4354 35.8595 36.5264 35.9095 36.5523 35.9968L37.6594 39.7278C37.6853 39.8151 37.6362 39.9068 37.5498 39.9325L26.5843 43.1983C26.4979 43.2241 26.4069 43.1742 26.381 43.0868L25.2739 39.3558Z"/></g><ellipse cx="14.024" cy="38.967" fill="#FFC13C" rx="6.311" ry="6.323"/><ellipse cx="14.024" cy="38.967" fill="url(#paint2_linear_1626_5976)" fill-opacity=".45" rx="6.311" ry="6.323"/><path fill="#FFC13C" d="M28.7494 20.6688C30.9608 22.2397 34.0246 21.717 35.5925 19.5014C37.1603 17.2858 36.6387 14.2163 34.4272 12.6455L28.7494 20.6688Z"/><path fill="url(#paint3_linear_1626_5976)" fill-opacity=".4" d="M28.7494 20.6688C30.9608 22.2397 34.0246 21.717 35.5925 19.5014C37.1603 17.2858 36.6387 14.2163 34.4272 12.6455L28.7494 20.6688Z"/><path fill="#44E2C3" d="M16.4951 3.06215C17.4457 4.75331 16.8486 6.89596 15.1614 7.84788C13.4742 8.79981 11.3358 8.20054 10.3852 6.50938C9.43466 4.81822 10.0318 2.67558 11.719 1.72365C13.4062 0.771723 15.5445 1.37099 16.4951 3.06215Z"/><path fill="url(#paint4_linear_1626_5976)" fill-opacity=".45" d="M16.4951 3.06215C17.4457 4.75331 16.8486 6.89596 15.1614 7.84788C13.4742 8.79981 11.3358 8.20054 10.3852 6.50938C9.43466 4.81822 10.0318 2.67558 11.719 1.72365C13.4062 0.771723 15.5445 1.37099 16.4951 3.06215Z"/><path fill="#44E2C3" d="M10.4423 6.61097C10.4333 6.59494 10.439 6.57463 10.455 6.56561L16.5069 3.15105C16.5229 3.14203 16.5432 3.14771 16.5522 3.16374L19.8151 8.9687C19.8241 8.98473 19.8185 9.00504 19.8025 9.01406L13.7505 12.4286C13.7345 12.4376 13.7142 12.432 13.7052 12.4159L10.4423 6.61097Z"/><path fill="url(#paint5_linear_1626_5976)" fill-opacity=".45" d="M10.4423 6.61097C10.4333 6.59494 10.439 6.57463 10.455 6.56561L16.5069 3.15105C16.5229 3.14203 16.5432 3.14771 16.5522 3.16374L19.8151 8.9687C19.8241 8.98473 19.8185 9.00504 19.8025 9.01406L13.7505 12.4286C13.7345 12.4376 13.7142 12.432 13.7052 12.4159L10.4423 6.61097Z"/><defs><filter id="filter0_d_1626_5976" width="14.591" height="16.554" x="23.623" y="27.473" color-interpolation-filters="sRGB" filterUnits="userSpaceOnUse"><feFlood flood-opacity="0" result="BackgroundImageFix"/><feColorMatrix in="SourceAlpha" result="hardAlpha" type="matrix" values="0 0 0 0 0 0 0 0 0 0 0 0 0 0 0 0 0 0 127 0"/><feOffset dx="-.548" dy="-.274"/><feGaussianBlur stdDeviation=".548"/><feComposite in2="hardAlpha" operator="out"/><feColorMatrix type="matrix" values="0 0 0 0 0.591667 0 0 0 0 0.561122 0 0 0 0 0.48566 0 0 0 0.03 0"/><feBlend in2="BackgroundImageFix" mode="normal" result="effect1_dropShadow_1626_5976"/><feBlend in="SourceGraphic" in2="effect1_dropShadow_1626_5976" mode="normal" result="shape"/></filter><linearGradient id="paint0_linear_1626_5976" x1="15.065" x2="19.567" y1="19.065" y2="26.063" gradientUnits="userSpaceOnUse"><stop stop-color="#fff"/><stop offset="1" stop-color="#fff" stop-opacity="0"/></linearGradient><linearGradient id="paint1_linear_1626_5976" x1="23.59" x2="28.317" y1="3.236" y2="6.968" gradientUnits="userSpaceOnUse"><stop stop-color="#fff"/><stop offset="1" stop-color="#fff" stop-opacity="0"/></linearGradient><linearGradient id="paint2_linear_1626_5976" x1="14.623" x2="8.824" y1="40.249" y2="32.718" gradientUnits="userSpaceOnUse"><stop stop-color="#fff" stop-opacity="0"/><stop offset="1" stop-color="#fff"/></linearGradient><linearGradient id="paint3_linear_1626_5976" x1="34.385" x2="35.911" y1="14.122" y2="19.002" gradientUnits="userSpaceOnUse"><stop stop-color="#fff" stop-opacity="0"/><stop offset="1" stop-color="#fff"/></linearGradient><linearGradient id="paint4_linear_1626_5976" x1="16.728" x2="11.046" y1="7.377" y2="5.481" gradientUnits="userSpaceOnUse"><stop stop-color="#fff" stop-opacity="0"/><stop offset="1" stop-color="#fff"/></linearGradient><linearGradient id="paint5_linear_1626_5976" x1="16.728" x2="11.046" y1="7.377" y2="5.481" gradientUnits="userSpaceOnUse"><stop stop-color="#fff" stop-opacity="0"/><stop offset="1" stop-color="#fff"/></linearGradient></defs></svg>