<svg width="20" height="20" viewBox="0 0 20 20" fill="none" xmlns="http://www.w3.org/2000/svg">
<path d="M17.3302 5.12875C16.746 5.12582 14.7314 5.1307 14.1902 5.12875H6.31868C5.34548 5.1307 4.55753 5.91978 4.55559 6.89438V17.9216C4.55559 18.8962 5.34548 19.6873 6.31868 19.6873H17.3302C17.7982 19.6882 18.2468 19.5017 18.5774 19.1707C18.908 18.8396 19.0942 18.3904 19.0933 17.9216V6.89438C19.0933 5.91978 18.3034 5.12875 17.3302 5.12875ZM18.3131 17.9218C18.3131 18.4647 17.8724 18.9061 17.3302 18.9061H6.31868C5.77649 18.9061 5.33572 18.4647 5.33572 17.9218V6.8945C5.33572 6.35153 5.77649 5.91013 6.31868 5.91013H17.3302C17.8724 5.91013 18.3131 6.35153 18.3131 6.8945V17.9218ZM2.19572 14.7773H3.77548V15.5585H2.19572C1.22251 15.5565 0.434564 14.7675 0.432617 13.7929V2.76562C0.434567 1.79102 1.22251 1.00195 2.19572 1H13.2072C14.1804 1.00195 14.9683 1.79102 14.9703 2.76562V4.34765H14.1902V2.76562C14.1902 2.22265 13.7494 1.78125 13.2072 1.78125H2.19572C1.65352 1.78125 1.21275 2.22265 1.21275 2.76562V13.7929C1.21372 14.3359 1.65352 14.7763 2.19572 14.7773Z" fill="#5E50FA"/>
<path d="M17.3302 5.12875C16.746 5.12582 14.7314 5.1307 14.1902 5.12875H6.31868C5.34548 5.1307 4.55753 5.91978 4.55559 6.89438V17.9216C4.55559 18.8962 5.34548 19.6873 6.31868 19.6873H17.3302C17.7982 19.6882 18.2468 19.5017 18.5774 19.1707C18.908 18.8396 19.0942 18.3904 19.0933 17.9216V6.89438C19.0933 5.91978 18.3034 5.12875 17.3302 5.12875ZM18.3131 17.9218C18.3131 18.4647 17.8724 18.9061 17.3302 18.9061H6.31868C5.77649 18.9061 5.33572 18.4647 5.33572 17.9218V6.8945C5.33572 6.35153 5.77649 5.91013 6.31868 5.91013H17.3302C17.8724 5.91013 18.3131 6.35153 18.3131 6.8945V17.9218ZM2.19572 14.7773H3.77548V15.5585H2.19572C1.22251 15.5565 0.434564 14.7675 0.432617 13.7929V2.76562C0.434567 1.79102 1.22251 1.00195 2.19572 1H13.2072C14.1804 1.00195 14.9683 1.79102 14.9703 2.76562V4.34765H14.1902V2.76562C14.1902 2.22265 13.7494 1.78125 13.2072 1.78125H2.19572C1.65352 1.78125 1.21275 2.22265 1.21275 2.76562V13.7929C1.21372 14.3359 1.65352 14.7763 2.19572 14.7773Z" stroke="#5E50FA" stroke-width="0.357143"/>
<path d="M17.3302 5.12875C16.746 5.12582 14.7314 5.1307 14.1902 5.12875H6.31868C5.34548 5.1307 4.55753 5.91978 4.55559 6.89438V17.9216C4.55559 18.8962 5.34548 19.6873 6.31868 19.6873H17.3302C17.7982 19.6882 18.2468 19.5017 18.5774 19.1707C18.908 18.8396 19.0942 18.3904 19.0933 17.9216V6.89438C19.0933 5.91978 18.3034 5.12875 17.3302 5.12875ZM18.3131 17.9218C18.3131 18.4647 17.8724 18.9061 17.3302 18.9061H6.31868C5.77649 18.9061 5.33572 18.4647 5.33572 17.9218V6.8945C5.33572 6.35153 5.77649 5.91013 6.31868 5.91013H17.3302C17.8724 5.91013 18.3131 6.35153 18.3131 6.8945V17.9218ZM2.19572 14.7773H3.77548V15.5585H2.19572C1.22251 15.5565 0.434564 14.7675 0.432617 13.7929V2.76562C0.434567 1.79102 1.22251 1.00195 2.19572 1H13.2072C14.1804 1.00195 14.9683 1.79102 14.9703 2.76562V4.34765H14.1902V2.76562C14.1902 2.22265 13.7494 1.78125 13.2072 1.78125H2.19572C1.65352 1.78125 1.21275 2.22265 1.21275 2.76562V13.7929C1.21372 14.3359 1.65352 14.7763 2.19572 14.7773Z" stroke="white" stroke-opacity="0.25" stroke-width="0.357143"/>
</svg>
