<svg xmlns="http://www.w3.org/2000/svg" width="81" height="65" fill="none" viewBox="0 0 81 65"><path fill="#567AFF" d="M36.8699 47.6C45.9623 47.6 53.3331 40.1672 53.3331 30.9984C53.3331 21.8295 45.9623 14.3967 36.8699 14.3967C27.7776 14.3967 20.4067 21.8295 20.4067 30.9984C20.4067 40.1672 27.7776 47.6 36.8699 47.6Z"/><path fill="#fff" d="M36.8699 33.7916C41.5599 33.7916 45.7263 36.0521 48.3584 39.554C50.1866 37.1175 51.2706 34.0834 51.2706 30.7946C51.2706 22.7763 44.8213 16.2728 36.8699 16.2728C28.9185 16.2728 22.4692 22.7717 22.4692 30.7899C22.4692 34.0788 23.5533 37.1128 25.3815 39.5493C28.0136 36.0521 32.18 33.7916 36.8699 33.7916Z"/><path fill="#567AFF" d="M40.884 30.1566C43.1012 27.9208 43.1012 24.2957 40.884 22.0599C38.6668 19.824 35.0719 19.824 32.8547 22.0599C30.6375 24.2957 30.6375 27.9208 32.8547 30.1566C35.0719 32.3925 38.6668 32.3925 40.884 30.1566Z"/><path fill="#F1F2F6" d="M51.5419 60H22.4576C21.6517 60 20.9998 59.4126 20.9998 58.6866V55.3134C20.9998 54.5873 21.6517 54 22.4576 54H51.5419C52.3478 54 52.9998 54.5873 52.9998 55.3134V58.6866C52.9998 59.4126 52.3478 60 51.5419 60Z"/><path fill="#FFC633" d="M5.81114 60.996L8.26868 60.644C8.94393 60.5467 8.94393 59.5601 8.26409 59.4674L5.81574 59.1339C5.5539 59.0969 5.3472 58.893 5.31045 58.6244L4.97053 56.1554C4.87866 55.4699 3.89564 55.4699 3.80377 56.1554L3.46385 58.6336C3.4271 58.8977 3.22499 59.1015 2.96316 59.1385L0.505619 59.4906C-0.169629 59.5879 -0.169629 60.5745 0.510213 60.6672L2.95856 61.0007C3.22039 61.0377 3.4271 61.2415 3.46385 61.5102L3.80377 63.9791C3.89564 64.6647 4.87866 64.6647 4.97053 63.9791L5.31045 61.5009C5.3472 61.2369 5.54931 61.0331 5.81114 60.996Z"/><path fill="#567AFF" d="M9.40807 49.3832L10.5013 49.2257C10.8045 49.184 10.7999 48.7439 10.5013 48.7022L9.41266 48.554C9.29782 48.5401 9.20595 48.4475 9.18758 48.327L9.03599 47.2292C8.99465 46.9235 8.55826 46.9235 8.51692 47.2292L8.36534 48.3317C8.35156 48.4475 8.25968 48.5401 8.14485 48.5586L7.05159 48.7161C6.74842 48.7578 6.75301 49.1979 7.05159 49.2396L8.14025 49.3878C8.25509 49.4017 8.34696 49.4943 8.36534 49.6148L8.51692 50.7126C8.55826 51.0183 8.99465 51.0183 9.03599 50.7126L9.18758 49.6101C9.20136 49.4943 9.29323 49.4017 9.40807 49.3832Z"/><path fill="#FFC633" d="M71.6428 30.776L69.1853 30.424C68.5101 30.3267 68.5101 29.3401 69.1899 29.2474L71.6383 28.9139C71.9001 28.8769 72.1068 28.673 72.1435 28.4044L72.4835 25.9354C72.5753 25.2499 73.5583 25.2499 73.6502 25.9354L73.9901 28.4136C74.0269 28.6777 74.229 28.8815 74.4908 28.9185L76.9484 29.2706C77.6236 29.3679 77.6236 30.3545 76.9438 30.4471L74.4954 30.7807C74.2336 30.8177 74.0269 31.0215 73.9901 31.2902L73.6502 33.7591C73.5583 34.4447 72.5753 34.4447 72.4835 33.7591L72.1435 31.2809C72.1068 31.0215 71.9047 30.8131 71.6428 30.776Z"/><path fill="#567AFF" d="M78.0463 25.8937L76.7969 25.7131C76.4524 25.6621 76.457 25.1619 76.8015 25.1155L78.0463 24.9442C78.1795 24.9256 78.2852 24.8191 78.3035 24.6848L78.4781 23.4294C78.524 23.082 79.0247 23.082 79.0707 23.4294L79.2452 24.6894C79.2636 24.8237 79.3692 24.9256 79.4979 24.9488L80.7473 25.1294C81.0918 25.1804 81.0872 25.6807 80.7427 25.727L79.4979 25.8984C79.3647 25.9169 79.259 26.0234 79.2406 26.1578L79.0661 27.4131C79.0201 27.7605 78.5194 27.7605 78.4735 27.4131L78.299 26.1531C78.2852 26.0188 78.1795 25.9123 78.0463 25.8937Z"/><path fill="#DCE0EC" d="M68.0462 19.1678L66.953 19.0104C66.6498 18.9687 66.6544 18.5286 66.953 18.4869L68.0416 18.3387C68.1565 18.3248 68.2483 18.2322 68.2667 18.1117L68.4183 17.0139C68.4596 16.7082 68.896 16.7082 68.9374 17.0139L69.0889 18.1164C69.1027 18.2322 69.1946 18.3248 69.3094 18.3433L70.4027 18.5008C70.7059 18.5425 70.7013 18.9826 70.4027 19.0243L69.314 19.1725C69.1992 19.1864 69.1073 19.279 69.0889 19.3995L68.9374 20.4973C68.896 20.803 68.4596 20.803 68.4183 20.4973L68.2667 19.3948C68.2529 19.2744 68.161 19.1817 68.0462 19.1678Z"/></svg>