<svg xmlns="http://www.w3.org/2000/svg" width="195" height="163" fill="none" viewBox="0 0 195 163"><path fill="#F0EFFF" d="M187.482 84.2977C187.482 106.101 178.577 125.756 164.297 139.882C150.324 153.855 130.977 162.3 109.634 162.3C88.4439 162.3 69.0969 153.701 54.9705 139.882C40.6906 125.756 31.7848 106.101 31.7848 84.2977C31.7848 41.1508 66.6401 6.29541 109.634 6.29541C152.627 6.29541 187.482 41.3043 187.482 84.2977Z"/><path fill="#EAEEF9" d="M180.725 33.1662C184.202 33.1662 187.021 30.3477 187.021 26.8708C187.021 23.3939 184.202 20.5753 180.725 20.5753C177.248 20.5753 174.43 23.3939 174.43 26.8708C174.43 30.3477 177.248 33.1662 180.725 33.1662Z"/><path fill="#EAEEF9" d="M189.939 8.59868C192.314 8.59868 194.239 6.6738 194.239 4.29934C194.239 1.92488 192.314 0 189.939 0C187.565 0 185.64 1.92488 185.64 4.29934C185.64 6.6738 187.565 8.59868 189.939 8.59868Z"/><path fill="#EAEEF9" d="M34.2414 33.0126C36.6158 33.0126 38.5407 31.0877 38.5407 28.7133C38.5407 26.3388 36.6158 24.4139 34.2414 24.4139C31.8669 24.4139 29.942 26.3388 29.942 28.7133C29.942 31.0877 31.8669 33.0126 34.2414 33.0126Z"/><path fill="#EAEEF9" d="M7.98461 115.929C12.3943 115.929 15.9691 112.354 15.9691 107.944C15.9691 103.534 12.3943 99.9596 7.98461 99.9596C3.5749 99.9596 0.00012207 103.534 0.00012207 107.944C0.00012207 112.354 3.5749 115.929 7.98461 115.929Z"/><path fill="#fff" d="M164.296 43.4541V139.882C150.323 153.855 130.976 162.3 109.633 162.3C88.4434 162.3 69.0964 153.701 54.97 139.882V43.4541H164.296Z"/><path fill="#979FAF" d="M111.564 92.6718L90.175 71.2828L82.9006 78.5573L104.29 99.9463L111.564 92.6718Z" opacity=".5"/><path fill="#979FAF" d="M129.109 60.6497L97.1881 92.5703L104.463 99.8447L136.383 67.9241L129.109 60.6497Z" opacity=".5"/><path fill="#D5DAE5" d="M137.579 113.011H81.6879V120.074H137.579V113.011Z"/><path fill="#D5DAE5" d="M137.579 128.52H81.6879V135.583H137.579V128.52Z"/><path fill="#D5DAE5" d="M123.913 144.182H95.3528V151.245H123.913V144.182Z"/></svg>