<svg xmlns="http://www.w3.org/2000/svg" width="35" height="28" fill="none" viewBox="0 0 35 28"><path fill="#61DFC6" d="M34.191 14.2612C34.5364 14.0527 34.5395 13.5527 34.1967 13.3399L13.5327 0.51219C13.1729 0.288818 12.7077 0.547588 12.7077 0.971107V26.2739C12.7077 26.6944 13.167 26.9537 13.527 26.7363L34.191 14.2612Z"/><path fill="#FFC13C" d="M17.7002 13.5435L8.7738e-05 2.26921V24.5078L17.7002 13.5435Z"/><path fill="url(#paint0_linear_1615_1581)" fill-opacity=".4" d="M17.7002 13.5435L8.7738e-05 2.26921V24.5078L17.7002 13.5435Z"/><path fill="#5E50FA" d="M8.62294 2.26904C8.62294 5.27689 6.18464 7.71523 3.17676 7.71523C6.18464 7.71523 8.62294 10.1536 8.62294 13.1614C8.62294 10.1536 11.0612 7.71523 14.0691 7.71523C11.0612 7.71523 8.62294 5.27689 8.62294 2.26904Z"/><defs><linearGradient id="paint0_linear_1615_1581" x1="12.949" x2="-.052" y1="17.491" y2="7.18" gradientUnits="userSpaceOnUse"><stop stop-color="#fff" stop-opacity="0"/><stop offset="1" stop-color="#fff"/></linearGradient></defs></svg>