<svg xmlns="http://www.w3.org/2000/svg" width="108" height="74" fill="none" viewBox="0 0 108 74"><path fill="#6557FF" d="M97.4221 38.4082C97.4221 48.3426 93.3644 57.2975 86.8581 63.7339C80.4917 70.1003 71.6766 73.9481 61.9521 73.9481C52.2976 73.9481 43.4826 70.0303 37.0462 63.7339C30.5399 57.2975 26.4822 48.3426 26.4822 38.4082C26.4822 18.7493 42.3632 2.86829 61.9521 2.86829C81.5411 2.86829 97.4221 18.8193 97.4221 38.4082Z"/><path fill="#FFC633" d="M94.3435 15.1113C95.9276 15.1113 97.2119 13.8271 97.2119 12.2429C97.2119 10.6587 95.9276 9.37451 94.3435 9.37451C92.7593 9.37451 91.4751 10.6587 91.4751 12.2429C91.4751 13.8271 92.7593 15.1113 94.3435 15.1113Z"/><path fill="#6557FF" d="M98.5412 3.91773C99.623 3.91773 100.5 3.0407 100.5 1.95883C100.5 0.876965 99.623 -6.10352e-05 98.5412 -6.10352e-05C97.4593 -6.10352e-05 96.5823 0.876965 96.5823 1.95883C96.5823 3.0407 97.4593 3.91773 98.5412 3.91773Z"/><path fill="#6557FF" d="M27.6012 15.0413C28.6831 15.0413 29.5601 14.1643 29.5601 13.0824C29.5601 12.0006 28.6831 11.1235 27.6012 11.1235C26.5194 11.1235 25.6423 12.0006 25.6423 13.0824C25.6423 14.1643 26.5194 15.0413 27.6012 15.0413Z"/><path fill="#FFC633" d="M15.6379 52.8202C17.6471 52.8202 19.2759 51.1914 19.2759 49.1823C19.2759 47.1731 17.6471 45.5443 15.6379 45.5443C13.6288 45.5443 12 47.1731 12 49.1823C12 51.1914 13.6288 52.8202 15.6379 52.8202Z"/><path fill="#fff" d="M86.8576 19.7987V63.7339C80.4912 70.1003 71.6762 73.9481 61.9517 73.9481C52.2972 73.9481 43.4821 70.0303 37.0458 63.7339V19.7987H86.8576Z"/><path fill="#FFC633" d="M62.8318 42.2236L53.0864 32.4781L49.772 35.7926L59.5174 45.538L62.8318 42.2236Z"/><path fill="#FFC633" d="M70.8249 27.6335L56.281 42.1774L59.5954 45.4918L74.1393 30.9479L70.8249 27.6335Z"/><path fill="#D5DAE5" d="M73.0755 51.4908H50.8281C49.9394 51.4908 49.219 52.2113 49.219 53.0999C49.219 53.9886 49.9394 54.709 50.8281 54.709H73.0755C73.9642 54.709 74.6846 53.9886 74.6846 53.0999C74.6846 52.2113 73.9642 51.4908 73.0755 51.4908Z" opacity=".4"/><path fill="#D5DAE5" d="M73.0755 58.5568H50.8281C49.9394 58.5568 49.219 59.2772 49.219 60.1659C49.219 61.0546 49.9394 61.775 50.8281 61.775H73.0755C73.9642 61.775 74.6846 61.0546 74.6846 60.1659C74.6846 59.2772 73.9642 58.5568 73.0755 58.5568Z" opacity=".4"/><path fill="#D5DAE5" d="M66.8492 65.6928H57.0548C56.1661 65.6928 55.4457 66.4132 55.4457 67.3019C55.4457 68.1906 56.1661 68.911 57.0548 68.911H66.8492C67.7379 68.911 68.4583 68.1906 68.4583 67.3019C68.4583 66.4132 67.7379 65.6928 66.8492 65.6928Z" opacity=".4"/><path fill="#FFC633" d="M5.81139 34.3548L8.26892 34.0027C8.94417 33.9055 8.94417 32.9188 8.26433 32.8262L5.81598 32.4926C5.55415 32.4556 5.34744 32.2518 5.31069 31.9831L4.97077 29.5142C4.8789 28.8286 3.89589 28.8286 3.80402 29.5142L3.46409 31.9924C3.42735 32.2564 3.22523 32.4602 2.9634 32.4973L0.505864 32.8493C-0.169385 32.9466 -0.169385 33.9332 0.510457 34.0259L2.95881 34.3594C3.22064 34.3965 3.42735 34.6003 3.46409 34.8689L3.80402 37.3379C3.89589 38.0234 4.8789 38.0234 4.97077 37.3379L5.31069 34.8597C5.34744 34.5956 5.54956 34.3918 5.81139 34.3548Z"/><path fill="#567AFF" d="M106.582 9.38324L107.675 9.22575C107.979 9.18406 107.974 8.74401 107.675 8.70232L106.587 8.55409C106.472 8.54019 106.38 8.44755 106.362 8.32711L106.21 7.22929C106.169 6.92357 105.732 6.92357 105.691 7.22929L105.539 8.33175C105.526 8.44755 105.434 8.54019 105.319 8.55872L104.226 8.71621C103.922 8.7579 103.927 9.19796 104.226 9.23965L105.314 9.38787C105.429 9.40177 105.521 9.49441 105.539 9.61485L105.691 10.7127C105.732 11.0184 106.169 11.0184 106.21 10.7127L106.362 9.61022C106.375 9.49442 106.467 9.40177 106.582 9.38324Z"/></svg>