<svg width="116" height="99" viewBox="0 0 116 99" fill="none" xmlns="http://www.w3.org/2000/svg">
<path opacity="0.1" d="M102.121 45.6836C102.121 57.4997 97.2947 68.1508 89.5559 75.8064C81.9836 83.3787 71.4989 87.9554 59.9324 87.9554C48.4491 87.9554 37.9643 83.2955 30.3088 75.8064C22.5701 68.1508 17.7438 57.4997 17.7438 45.6836C17.7438 22.3009 36.6329 3.41174 59.9324 3.41174C83.2318 3.41174 102.121 22.3841 102.121 45.6836Z" fill="#6557FF"/>
<path d="M98.4595 17.9737C100.344 17.9737 101.871 16.4462 101.871 14.562C101.871 12.6778 100.344 11.1503 98.4595 11.1503C96.5753 11.1503 95.0478 12.6778 95.0478 14.562C95.0478 16.4462 96.5753 17.9737 98.4595 17.9737Z" fill="#EAEEF9"/>
<path d="M103.452 4.65982C104.739 4.65982 105.782 3.61667 105.782 2.32988C105.782 1.04309 104.739 -6.10352e-05 103.452 -6.10352e-05C102.165 -6.10352e-05 101.122 1.04309 101.122 2.32988C101.122 3.61667 102.165 4.65982 103.452 4.65982Z" fill="#EAEEF9"/>
<path d="M19.075 17.8905C20.3618 17.8905 21.4049 16.8474 21.4049 15.5606C21.4049 14.2738 20.3618 13.2306 19.075 13.2306C17.7882 13.2306 16.7451 14.2738 16.7451 15.5606C16.7451 16.8474 17.7882 17.8905 19.075 17.8905Z" fill="#EAEEF9"/>
<path d="M4.84571 62.8252C7.23547 62.8252 9.17275 60.888 9.17275 58.4982C9.17275 56.1085 7.23547 54.1712 4.84571 54.1712C2.45596 54.1712 0.518677 56.1085 0.518677 58.4982C0.518677 60.888 2.45596 62.8252 4.84571 62.8252Z" fill="#EAEEF9"/>
<g filter="url(#filter0_d_2119_11291)">
<path d="M97.6426 21.4544V67.5579C97.6426 69.4768 96.1066 70.997 94.2237 70.997H24.7789C22.896 70.997 21.3351 69.4519 21.3351 67.5579V21.4544C21.3351 19.5604 22.8712 18.0153 24.7789 18.0153H94.2237C96.1066 18.0153 97.6426 19.5604 97.6426 21.4544Z" fill="url(#paint0_linear_2119_11291)"/>
</g>
<path d="M64.525 33.6362C69.8596 33.6362 74.1628 37.5159 74.1628 42.2853C74.1628 45.026 72.7403 47.4819 70.4997 49.0836V52.6785C70.4997 53.1768 69.9307 53.426 69.5751 53.1412L66.5166 50.7565C65.8764 50.8633 65.2363 50.9345 64.5605 50.9345C59.2259 50.9345 54.9227 47.0548 54.9227 42.2853C54.9227 37.5159 59.2259 33.6362 64.525 33.6362Z" fill="#CBD4E0"/>
<g filter="url(#filter1_d_2119_11291)">
<path d="M55.1004 33.2091C49.1613 33.2091 44.3601 37.5159 44.3601 42.8193C44.3601 45.8803 45.9605 48.6209 48.45 50.365V54.3514C48.45 54.8853 49.0546 55.2056 49.4813 54.8497L52.8955 52.2158C53.6068 52.3582 54.318 52.4294 55.0649 52.4294C61.0041 52.4294 65.8052 48.1226 65.8052 42.8193C65.8052 37.5159 61.0041 33.2091 55.1004 33.2091Z" fill="url(#paint1_linear_2119_11291)"/>
</g>
<path d="M51.158 44.3902C51.8097 44.3902 52.338 43.8614 52.338 43.2092C52.338 42.557 51.8097 42.0282 51.158 42.0282C50.5063 42.0282 49.978 42.557 49.978 43.2092C49.978 43.8614 50.5063 44.3902 51.158 44.3902Z" fill="#989FB0"/>
<path d="M54.9786 44.3902C55.6303 44.3902 56.1586 43.8614 56.1586 43.2092C56.1586 42.557 55.6303 42.0282 54.9786 42.0282C54.3269 42.0282 53.7986 42.557 53.7986 43.2092C53.7986 43.8614 54.3269 44.3902 54.9786 44.3902Z" fill="#989FB0"/>
<path d="M58.7992 44.3902C59.4509 44.3902 59.9792 43.8614 59.9792 43.2092C59.9792 42.557 59.4509 42.0282 58.7992 42.0282C58.1475 42.0282 57.6192 42.557 57.6192 43.2092C57.6192 43.8614 58.1475 44.3902 58.7992 44.3902Z" fill="#989FB0"/>
<path d="M52.4547 32.306C52.4118 32.306 52.3689 32.306 52.3261 32.306C52.1116 32.2201 51.983 32.0056 52.0259 31.791L52.7549 29.4306C52.8406 29.216 53.055 29.0873 53.2694 29.1302C53.4838 29.216 53.6125 29.4306 53.5696 29.6452L52.8835 32.0056C52.8406 32.1772 52.6691 32.306 52.4547 32.306Z" fill="#B5BCCE"/>
<path d="M50.6537 32.8209C50.4822 32.8209 50.3106 32.6922 50.2249 32.5205L49.11 29.1301C49.0242 28.9156 49.1528 28.6581 49.3672 28.5722C49.5817 28.4864 49.8389 28.6152 49.9247 28.8297L51.0396 32.2201C51.1254 32.4347 50.9967 32.6922 50.7823 32.778C50.7394 32.8209 50.6966 32.8209 50.6537 32.8209Z" fill="#B5BCCE"/>
<path d="M48.9815 33.6363C48.8528 33.6363 48.7671 33.5933 48.6813 33.5075L47.3091 32.1771C47.1376 32.0054 47.1376 31.748 47.3091 31.5763C47.4806 31.4046 47.7379 31.4046 47.9095 31.5763L49.2817 32.9067C49.4532 33.0784 49.4532 33.3358 49.2817 33.5075C49.1959 33.5933 49.0672 33.6363 48.9815 33.6363Z" fill="#B5BCCE"/>
<path d="M97.6426 21.4544V26.613H21.3351V21.4544C21.3351 19.5604 22.8712 18.0153 24.7789 18.0153H94.2237C96.1066 18.0153 97.6426 19.5604 97.6426 21.4544Z" fill="#D5DDEA"/>
<path d="M26.1417 23.5975C26.8532 23.5975 27.43 23.0173 27.43 22.3017C27.43 21.586 26.8532 21.0058 26.1417 21.0058C25.4302 21.0058 24.8534 21.586 24.8534 22.3017C24.8534 23.0173 25.4302 23.5975 26.1417 23.5975Z" fill="#989FB0"/>
<path d="M30.3535 23.5975C31.065 23.5975 31.6418 23.0173 31.6418 22.3017C31.6418 21.586 31.065 21.0058 30.3535 21.0058C29.642 21.0058 29.0652 21.586 29.0652 22.3017C29.0652 23.0173 29.642 23.5975 30.3535 23.5975Z" fill="#989FB0"/>
<path d="M34.5405 23.5975C35.252 23.5975 35.8288 23.0173 35.8288 22.3017C35.8288 21.586 35.252 21.0058 34.5405 21.0058C33.829 21.0058 33.2522 21.586 33.2522 22.3017C33.2522 23.0173 33.829 23.5975 34.5405 23.5975Z" fill="#989FB0"/>
<path d="M37.2657 58.0132H81.7123" stroke="#D5DDEA" stroke-width="1.66424" stroke-miterlimit="10" stroke-linecap="round" stroke-linejoin="round"/>
<path d="M44.277 62.7732H74.7009" stroke="#D5DDEA" stroke-width="1.66424" stroke-miterlimit="10" stroke-linecap="round" stroke-linejoin="round"/>
<path d="M94.2689 81.1774L77.6708 64.5923L81.4759 60.7872L98.0609 77.3854L94.2689 81.1774Z" fill="#858B9B"/>
<path d="M100.039 87.0129L87.3112 74.2855C86.2484 73.2227 86.2484 71.4907 87.3112 70.4279C88.374 69.3651 90.106 69.3651 91.1688 70.4279L103.896 83.1553C104.959 84.2181 104.959 85.9501 103.896 87.0129C102.833 88.0757 101.101 88.0757 100.039 87.0129Z" fill="#858B9B"/>
<path d="M99.1334 87.8263L82.7583 71.4513C82.3778 71.0707 82.3778 70.4541 82.7583 70.0604L86.944 65.8748C87.3245 65.4943 87.9412 65.4943 88.3348 65.8748L104.71 82.2499C105.09 82.6304 105.09 83.2471 104.71 83.6407L100.524 87.8263C100.131 88.2069 99.514 88.2069 99.1334 87.8263Z" fill="url(#paint2_linear_2119_11291)"/>
<path d="M58.8814 11.1503C41.5091 11.1503 27.4302 25.2292 27.4302 42.6015C27.4302 59.9607 41.5091 74.0527 58.8683 74.0527C76.2405 74.0527 90.3195 59.9738 90.3195 42.6015C90.3195 25.2292 76.2406 11.1503 58.8814 11.1503ZM58.8814 68.2269C44.9337 68.2269 33.6364 56.746 33.6364 42.5884C33.6364 28.4307 44.9337 16.9629 58.8814 16.9629C72.8291 16.9629 84.1263 28.4439 84.1263 42.6015C84.1263 56.7591 72.816 68.2269 58.8814 68.2269Z" fill="url(#paint3_linear_2119_11291)"/>
<defs>
<filter id="filter0_d_2119_11291" x="3.02846" y="8.86198" width="112.921" height="89.5951" filterUnits="userSpaceOnUse" color-interpolation-filters="sRGB">
<feFlood flood-opacity="0" result="BackgroundImageFix"/>
<feColorMatrix in="SourceAlpha" type="matrix" values="0 0 0 0 0 0 0 0 0 0 0 0 0 0 0 0 0 0 127 0" result="hardAlpha"/>
<feOffset dy="9.15334"/>
<feGaussianBlur stdDeviation="9.15334"/>
<feColorMatrix type="matrix" values="0 0 0 0 0.397708 0 0 0 0 0.47749 0 0 0 0 0.575 0 0 0 0.27 0"/>
<feBlend mode="normal" in2="BackgroundImageFix" result="effect1_dropShadow_2119_11291"/>
<feBlend mode="normal" in="SourceGraphic" in2="effect1_dropShadow_2119_11291" result="shape"/>
</filter>
<filter id="filter1_d_2119_11291" x="37.5615" y="29.8099" width="35.0422" height="35.388" filterUnits="userSpaceOnUse" color-interpolation-filters="sRGB">
<feFlood flood-opacity="0" result="BackgroundImageFix"/>
<feColorMatrix in="SourceAlpha" type="matrix" values="0 0 0 0 0 0 0 0 0 0 0 0 0 0 0 0 0 0 127 0" result="hardAlpha"/>
<feOffset dy="3.39928"/>
<feGaussianBlur stdDeviation="3.39928"/>
<feColorMatrix type="matrix" values="0 0 0 0 0.397708 0 0 0 0 0.47749 0 0 0 0 0.575 0 0 0 0.27 0"/>
<feBlend mode="normal" in2="BackgroundImageFix" result="effect1_dropShadow_2119_11291"/>
<feBlend mode="normal" in="SourceGraphic" in2="effect1_dropShadow_2119_11291" result="shape"/>
</filter>
<linearGradient id="paint0_linear_2119_11291" x1="59.464" y1="16.7898" x2="59.464" y2="71.5682" gradientUnits="userSpaceOnUse">
<stop stop-color="#FDFEFF"/>
<stop offset="0.9964" stop-color="#ECF0F5"/>
</linearGradient>
<linearGradient id="paint1_linear_2119_11291" x1="55.0757" y1="32.7051" x2="55.0757" y2="55.235" gradientUnits="userSpaceOnUse">
<stop stop-color="#FDFEFF"/>
<stop offset="0.9964" stop-color="#ECF0F5"/>
</linearGradient>
<linearGradient id="paint2_linear_2119_11291" x1="82.4626" y1="76.853" x2="104.999" y2="76.853" gradientUnits="userSpaceOnUse">
<stop stop-color="#B0BACC"/>
<stop offset="1" stop-color="#969EAE"/>
</linearGradient>
<linearGradient id="paint3_linear_2119_11291" x1="27.4014" y1="42.6083" x2="90.3309" y2="42.6083" gradientUnits="userSpaceOnUse">
<stop stop-color="#B0BACC"/>
<stop offset="1" stop-color="#969EAE"/>
</linearGradient>
</defs>
</svg>
