<svg width="107" height="92" viewBox="0 0 107 92" fill="none" xmlns="http://www.w3.org/2000/svg">
<path d="M51.8276 83.0737C73.5359 83.0737 91.1466 65.3758 91.1466 43.4932C91.1466 21.6106 73.5359 3.99988 51.8276 3.99988C30.1194 3.99988 12.5087 21.6978 12.5087 43.5804C12.5087 65.463 30.1194 83.0737 51.8276 83.0737Z" fill="#EAEEF9"/>
<path d="M71.182 82.5506C65.1665 82.725 58.0176 82.5506 52.8738 82.4634C47.8173 82.6378 40.5812 82.725 34.5657 82.5506C40.494 79.1505 42.5864 72.8734 42.8479 68.6887H62.7254C63.2485 72.7862 65.3408 79.1505 71.182 82.5506Z" fill="url(#paint0_linear_2375_7413)"/>
<g filter="url(#filter0_d_2375_7413)">
<path d="M90.4489 15.9439V67.9915C90.4489 69.2992 89.4027 70.2582 88.2693 70.2582H17.9137C16.6931 70.2582 15.7341 69.212 15.7341 67.9915V15.9439C15.7341 14.7234 16.7803 13.6772 17.9137 13.6772H88.1822C89.4899 13.6772 90.4489 14.7234 90.4489 15.9439Z" fill="white"/>
</g>
<path d="M90.4489 15.9439V60.7554H15.7341V15.9439C15.7341 14.7234 16.7803 13.6772 17.9137 13.6772H88.1822C89.4899 13.6772 90.4489 14.7234 90.4489 15.9439Z" fill="#989FB0"/>
<path d="M87.5723 16.5543H18.2628V58.2272H87.6595V16.5543H87.5723Z" fill="white"/>
<path d="M52.9609 67.153C54.0071 67.153 54.7918 66.3684 54.7918 65.3222C54.7918 64.276 54.0071 63.4914 52.9609 63.4914C51.9148 63.4914 51.1301 64.276 51.1301 65.3222C51.1301 66.3684 51.9148 67.153 52.9609 67.153Z" fill="#D0D8E6"/>
<path d="M83.5613 24.226V29.5441C83.5613 30.3288 82.951 30.939 82.1664 30.939H23.5802C22.7956 30.939 22.1853 30.3288 22.1853 29.5441V24.226C22.1853 23.4414 22.7956 22.8311 23.5802 22.8311H82.0792C82.951 22.7439 83.5613 23.4414 83.5613 24.226Z" fill="#E5E9F1"/>
<path d="M30.3804 22.7438V31.0261H23.4931C22.7084 31.0261 22.0981 30.4158 22.0981 29.6312V24.3131C22.0981 23.5285 22.7084 22.9182 23.4931 22.9182L30.3804 22.7438Z" fill="#E3EAF2"/>
<path opacity="0.8" d="M83.5613 35.3853V40.7034C83.5613 41.4881 82.951 42.0983 82.1664 42.0983H23.5802C22.7956 42.0983 22.1853 41.4881 22.1853 40.7034V35.3853C22.1853 34.6007 22.7956 33.9904 23.5802 33.9904H82.0792C82.951 33.9032 83.5613 34.6007 83.5613 35.3853Z" fill="#E5E9F1"/>
<path opacity="0.5" d="M83.5613 46.5446V51.8627C83.5613 52.6473 82.951 53.2576 82.1664 53.2576H23.5802C22.7956 53.2576 22.1853 52.6473 22.1853 51.8627V46.5446C22.1853 45.7599 22.7956 45.1497 23.5802 45.1497H82.0792C82.951 45.0625 83.5613 45.6728 83.5613 46.5446Z" fill="#E5E9F1"/>
<path opacity="0.3" d="M83.5613 57.6167V58.227H22.0981V57.6167C22.0981 56.832 22.7084 56.2218 23.4931 56.2218H82.0792C82.951 56.2218 83.5613 56.832 83.5613 57.6167Z" fill="#E5E9F1"/>
<path d="M21.4008 79.6738C21.4008 81.1559 20.1802 82.3764 18.6981 82.3764H3.70288C2.22079 82.3764 1.00024 81.1559 1.00024 79.6738V44.4524C1.00024 42.9703 2.22079 41.7497 3.70288 41.7497H18.611C20.093 41.7497 21.3136 42.9703 21.3136 44.4524L21.4008 79.6738Z" fill="white"/>
<path d="M18.6981 41.6625C20.1802 41.6625 21.4008 42.883 21.4008 44.3651V79.5866C21.4008 81.0687 20.1802 82.2892 18.6981 82.2892H3.70288C2.22079 82.2892 1.00024 81.0687 1.00024 79.5866V44.4523C1.00024 42.9702 2.22079 41.7497 3.70288 41.7497L18.6981 41.6625Z" fill="#989FB0"/>
<path d="M20.0932 44.4523V79.6737C20.0932 80.3712 19.5701 81.0686 18.7855 81.0686H18.6983H3.70301H3.61583C2.91838 81.0686 2.30811 80.4584 2.30811 79.6737V44.4523C2.30811 43.6677 2.91838 43.0574 3.61583 43.0574H5.79538C6.1441 43.0574 6.31847 43.3189 6.31847 43.5805C6.31847 44.1036 6.75438 44.6266 7.36465 44.6266H14.9495C15.4726 44.6266 15.9956 44.1907 15.9956 43.5805C15.9956 43.2317 16.2572 43.0574 16.4316 43.0574H18.5239C19.3957 42.9702 20.0932 43.6677 20.0932 44.4523Z" fill="white"/>
<path d="M12.5083 43.5804H10.5031C10.3288 43.5804 10.1544 43.406 10.1544 43.2317C10.1544 43.0573 10.3288 42.8829 10.5031 42.8829H12.5083C12.6827 42.8829 12.8571 43.0573 12.8571 43.2317C12.7699 43.406 12.5955 43.5804 12.5083 43.5804Z" fill="white"/>
<path d="M9.37014 43.5804H9.19577C9.02141 43.5804 8.84705 43.406 8.84705 43.2317C8.84705 43.0573 9.02141 42.8829 9.19577 42.8829H9.37014C9.5445 42.8829 9.71886 43.0573 9.71886 43.2317C9.71886 43.406 9.5445 43.5804 9.37014 43.5804Z" fill="white"/>
<path d="M18.0011 56.1347H4.4007C3.96479 56.1347 3.70325 55.7859 3.70325 55.4372V48.5498C3.70325 48.1139 4.05197 47.8524 4.4007 47.8524H18.0882C18.5241 47.8524 18.7857 48.2011 18.7857 48.5498V55.4372C18.6985 55.7859 18.437 56.1347 18.0011 56.1347Z" fill="#989FB0"/>
<path opacity="0.8" d="M18.0011 66.422H4.4007C3.96479 66.422 3.70325 66.0733 3.70325 65.7246V58.8372C3.70325 58.4013 4.05197 58.1397 4.4007 58.1397H18.0882C18.5241 58.1397 18.7857 58.4885 18.7857 58.8372V65.7246C18.6985 66.0733 18.437 66.422 18.0011 66.422Z" fill="#E5E9F1"/>
<path opacity="0.5" d="M18.0011 76.7094H4.4007C3.96479 76.7094 3.70325 76.3607 3.70325 76.0119V69.1246C3.70325 68.6887 4.05197 68.4271 4.4007 68.4271H18.0882C18.5241 68.4271 18.7857 68.7758 18.7857 69.1246V76.0119C18.6985 76.4478 18.437 76.7094 18.0011 76.7094Z" fill="#E5E9F1"/>
<path opacity="0.3" d="M18.6985 79.5863V80.9812H18.6114H3.70327H3.61609V79.5863C3.61609 79.1504 3.96482 78.8889 4.31354 78.8889H18.0011C18.437 78.8889 18.6985 79.2376 18.6985 79.5863Z" fill="#E5E9F1"/>
<path d="M21.1395 19.78C21.5754 19.78 21.9241 19.4312 21.9241 18.9953C21.9241 18.5594 21.5754 18.2107 21.1395 18.2107C20.7036 18.2107 20.3549 18.5594 20.3549 18.9953C20.3549 19.4312 20.7036 19.78 21.1395 19.78Z" fill="#E3EAF2"/>
<path d="M23.6674 19.78C24.1034 19.78 24.4521 19.4312 24.4521 18.9953C24.4521 18.5594 24.1034 18.2107 23.6674 18.2107C23.2315 18.2107 22.8828 18.5594 22.8828 18.9953C22.8828 19.4312 23.2315 19.78 23.6674 19.78Z" fill="#E3EAF2"/>
<path d="M26.1961 19.78C26.632 19.78 26.9808 19.4312 26.9808 18.9953C26.9808 18.5594 26.632 18.2107 26.1961 18.2107C25.7602 18.2107 25.4115 18.5594 25.4115 18.9953C25.4115 19.4312 25.7602 19.78 26.1961 19.78Z" fill="#E3EAF2"/>
<path d="M104.933 68.4645C104.584 69.9466 104.061 71.5158 103.451 72.8235C101.794 76.0493 99.1786 78.5775 95.9529 80.234C92.64 81.8905 88.7168 82.5879 84.7937 81.7161C75.5524 79.7981 69.624 70.7312 71.542 61.4899C73.46 52.2487 82.4397 46.2331 91.681 48.2383C94.9939 48.9357 97.8709 50.5922 100.312 52.8589C104.41 57.0437 106.066 62.8848 104.933 68.4645Z" fill="url(#paint1_linear_2375_7413)"/>
<path d="M89.0942 71.3527L93.6023 66.8446C94.1326 66.3143 94.1326 65.3861 93.6023 64.8558C93.0719 64.3254 92.1438 64.3254 91.5471 64.8558L89.492 66.8446V59.5522C89.492 58.7566 88.829 58.0937 88.0335 58.0937C87.2379 58.0937 86.575 58.7566 86.575 59.5522V66.8446L84.5198 64.8558C83.9895 64.3254 83.0613 64.3254 82.4647 64.8558C82.1332 65.1873 82.0006 65.5187 82.0006 65.8502C82.0006 66.1817 82.1332 66.6458 82.4647 66.8446L86.9727 71.3527C87.1716 71.5516 87.6357 71.8168 87.9672 71.8168C88.2986 71.8168 88.8953 71.6842 89.0942 71.3527Z" fill="white"/>
<path d="M1.27136 82.6455L101.975 82.6455" stroke="#989FB0" stroke-width="1.27485" stroke-miterlimit="10" stroke-linecap="round" stroke-linejoin="round"/>
<path d="M7.79837 38.1833C9.24174 38.1833 10.4118 37.0132 10.4118 35.5699C10.4118 34.1265 9.24174 32.9564 7.79837 32.9564C6.35501 32.9564 5.18494 34.1265 5.18494 35.5699C5.18494 37.0132 6.35501 38.1833 7.79837 38.1833Z" fill="#EAEEF9"/>
<path d="M5.18445 29.7054C6.17016 29.7054 6.96923 28.9063 6.96923 27.9206C6.96923 26.9349 6.17016 26.1358 5.18445 26.1358C4.19874 26.1358 3.39966 26.9349 3.39966 27.9206C3.39966 28.9063 4.19874 29.7054 5.18445 29.7054Z" fill="#EAEEF9"/>
<path d="M79.7791 8.78985C80.7648 8.78985 81.5638 7.99077 81.5638 7.00506C81.5638 6.01935 80.7648 5.22028 79.7791 5.22028C78.7933 5.22028 77.9943 6.01935 77.9943 7.00506C77.9943 7.99077 78.7933 8.78985 79.7791 8.78985Z" fill="#EAEEF9"/>
<path d="M98.6599 44.7572C100.491 44.7572 101.975 43.2732 101.975 41.4426C101.975 39.612 100.491 38.128 98.6599 38.128C96.8293 38.128 95.3453 39.612 95.3453 41.4426C95.3453 43.2732 96.8293 44.7572 98.6599 44.7572Z" fill="#EAEEF9"/>
<path d="M97.6571 13.3689C97.5954 13.2703 97.5336 13.1716 97.4718 13.073C97.3605 12.4561 97.6688 11.8511 98.2242 11.6406L104.704 9.91761C105.322 9.80582 105.927 10.1136 106.137 10.6687C106.248 11.2856 105.94 11.8906 105.384 12.101L98.9659 13.9227C98.5093 14.0713 97.966 13.8622 97.6571 13.3689Z" fill="#B5BCCE"/>
<path d="M93.8779 9.96753C93.6309 9.57293 93.68 8.99288 93.9514 8.5483L100.145 1.09973C100.515 0.593337 101.293 0.518371 101.799 0.887979C102.305 1.25759 102.38 2.03494 102.01 2.54133L95.8161 9.9899C95.446 10.4963 94.6683 10.5713 94.162 10.2017C94.0015 10.1648 93.9397 10.0662 93.8779 9.96753Z" fill="#B5BCCE"/>
<path d="M89.5942 7.29603C89.4089 7.00008 89.3841 6.74096 89.458 6.42003L90.5421 1.34687C90.6899 0.704996 91.2823 0.334083 91.9243 0.481404C92.5663 0.628725 92.9369 1.22062 92.789 1.86249L91.705 6.93565C91.5572 7.57752 90.9648 7.94843 90.3228 7.80111C90.0018 7.72745 89.7178 7.49332 89.5942 7.29603Z" fill="#B5BCCE"/>
<defs>
<filter id="filter0_d_2375_7413" x="1.7108" y="6.66555" width="102.761" height="84.6276" filterUnits="userSpaceOnUse" color-interpolation-filters="sRGB">
<feFlood flood-opacity="0" result="BackgroundImageFix"/>
<feColorMatrix in="SourceAlpha" type="matrix" values="0 0 0 0 0 0 0 0 0 0 0 0 0 0 0 0 0 0 127 0" result="hardAlpha"/>
<feOffset dy="7.01167"/>
<feGaussianBlur stdDeviation="7.01167"/>
<feColorMatrix type="matrix" values="0 0 0 0 0.397708 0 0 0 0 0.47749 0 0 0 0 0.575 0 0 0 0.27 0"/>
<feBlend mode="normal" in2="BackgroundImageFix" result="effect1_dropShadow_2375_7413"/>
<feBlend mode="normal" in="SourceGraphic" in2="effect1_dropShadow_2375_7413" result="shape"/>
</filter>
<linearGradient id="paint0_linear_2375_7413" x1="52.881" y1="82.1637" x2="52.881" y2="69.7493" gradientUnits="userSpaceOnUse">
<stop stop-color="#E8ECF5"/>
<stop offset="0.9913" stop-color="#BDC4D7"/>
</linearGradient>
<linearGradient id="paint1_linear_2375_7413" x1="71.166" y1="64.9767" x2="105.287" y2="64.9767" gradientUnits="userSpaceOnUse">
<stop stop-color="#B0BACC"/>
<stop offset="1" stop-color="#969EAE"/>
</linearGradient>
</defs>
</svg>
