<svg width="106" height="88" viewBox="0 0 106 88" fill="none" xmlns="http://www.w3.org/2000/svg">
<path d="M51.8276 79.0737C73.5359 79.0737 91.1466 61.3758 91.1466 39.4932C91.1466 17.6106 73.5359 -0.00012207 51.8276 -0.00012207C30.1194 -0.00012207 12.5087 17.6978 12.5087 39.5804C12.5087 61.463 30.1194 79.0737 51.8276 79.0737Z" fill="#EAEEF9"/>
<path d="M71.182 78.5506C65.1665 78.725 58.0176 78.5506 52.8738 78.4634C47.8173 78.6378 40.5812 78.725 34.5657 78.5506C40.494 75.1505 42.5864 68.8734 42.8479 64.6887H62.7254C63.2485 68.7862 65.3408 75.1505 71.182 78.5506Z" fill="url(#paint0_linear_2119_10776)"/>
<g filter="url(#filter0_d_2119_10776)">
<path d="M90.4489 11.9439V63.9915C90.4489 65.2992 89.4027 66.2582 88.2693 66.2582H17.9137C16.6931 66.2582 15.7341 65.212 15.7341 63.9915V11.9439C15.7341 10.7234 16.7803 9.67722 17.9137 9.67722H88.1822C89.4899 9.67722 90.4489 10.7234 90.4489 11.9439Z" fill="white"/>
</g>
<path d="M90.4489 11.9439V56.7554H15.7341V11.9439C15.7341 10.7234 16.7803 9.67722 17.9137 9.67722H88.1822C89.4899 9.67722 90.4489 10.7234 90.4489 11.9439Z" fill="#989FB0"/>
<path d="M87.5723 12.5543H18.2628V54.2272H87.6595V12.5543H87.5723Z" fill="white"/>
<path d="M52.9609 63.153C54.0071 63.153 54.7918 62.3684 54.7918 61.3222C54.7918 60.276 54.0071 59.4914 52.9609 59.4914C51.9148 59.4914 51.1301 60.276 51.1301 61.3222C51.1301 62.3684 51.9148 63.153 52.9609 63.153Z" fill="#D0D8E6"/>
<path d="M83.5613 20.226V25.5441C83.5613 26.3288 82.951 26.939 82.1664 26.939H23.5802C22.7956 26.939 22.1853 26.3288 22.1853 25.5441V20.226C22.1853 19.4414 22.7956 18.8311 23.5802 18.8311H82.0792C82.951 18.7439 83.5613 19.4414 83.5613 20.226Z" fill="#E5E9F1"/>
<path d="M30.3804 18.7438V27.0261H23.4931C22.7084 27.0261 22.0981 26.4158 22.0981 25.6312V20.3131C22.0981 19.5285 22.7084 18.9182 23.4931 18.9182L30.3804 18.7438Z" fill="#E3EAF2"/>
<path opacity="0.8" d="M83.5613 31.3853V36.7034C83.5613 37.4881 82.951 38.0983 82.1664 38.0983H23.5802C22.7956 38.0983 22.1853 37.4881 22.1853 36.7034V31.3853C22.1853 30.6007 22.7956 29.9904 23.5802 29.9904H82.0792C82.951 29.9032 83.5613 30.6007 83.5613 31.3853Z" fill="#E5E9F1"/>
<path opacity="0.5" d="M83.5613 42.5446V47.8627C83.5613 48.6473 82.951 49.2576 82.1664 49.2576H23.5802C22.7956 49.2576 22.1853 48.6473 22.1853 47.8627V42.5446C22.1853 41.7599 22.7956 41.1497 23.5802 41.1497H82.0792C82.951 41.0625 83.5613 41.6728 83.5613 42.5446Z" fill="#E5E9F1"/>
<path opacity="0.3" d="M83.5613 53.6167V54.227H22.0981V53.6167C22.0981 52.832 22.7084 52.2218 23.4931 52.2218H82.0792C82.951 52.2218 83.5613 52.832 83.5613 53.6167Z" fill="#E5E9F1"/>
<path d="M21.4008 75.6738C21.4008 77.1559 20.1802 78.3764 18.6981 78.3764H3.70288C2.22079 78.3764 1.00024 77.1559 1.00024 75.6738V40.4524C1.00024 38.9703 2.22079 37.7497 3.70288 37.7497H18.611C20.093 37.7497 21.3136 38.9703 21.3136 40.4524L21.4008 75.6738Z" fill="white"/>
<path d="M18.6981 37.6625C20.1802 37.6625 21.4008 38.883 21.4008 40.3651V75.5866C21.4008 77.0687 20.1802 78.2892 18.6981 78.2892H3.70288C2.22079 78.2892 1.00024 77.0687 1.00024 75.5866V40.4523C1.00024 38.9702 2.22079 37.7497 3.70288 37.7497L18.6981 37.6625Z" fill="#989FB0"/>
<path d="M20.0932 40.4523V75.6737C20.0932 76.3712 19.5701 77.0686 18.7855 77.0686H18.6983H3.70301H3.61583C2.91838 77.0686 2.30811 76.4584 2.30811 75.6737V40.4523C2.30811 39.6677 2.91838 39.0574 3.61583 39.0574H5.79538C6.1441 39.0574 6.31847 39.3189 6.31847 39.5805C6.31847 40.1036 6.75438 40.6266 7.36465 40.6266H14.9495C15.4726 40.6266 15.9956 40.1907 15.9956 39.5805C15.9956 39.2317 16.2572 39.0574 16.4316 39.0574H18.5239C19.3957 38.9702 20.0932 39.6677 20.0932 40.4523Z" fill="white"/>
<path d="M12.5083 39.5804H10.5031C10.3288 39.5804 10.1544 39.406 10.1544 39.2317C10.1544 39.0573 10.3288 38.8829 10.5031 38.8829H12.5083C12.6827 38.8829 12.8571 39.0573 12.8571 39.2317C12.7699 39.406 12.5955 39.5804 12.5083 39.5804Z" fill="white"/>
<path d="M9.37014 39.5804H9.19577C9.02141 39.5804 8.84705 39.406 8.84705 39.2317C8.84705 39.0573 9.02141 38.8829 9.19577 38.8829H9.37014C9.5445 38.8829 9.71886 39.0573 9.71886 39.2317C9.71886 39.406 9.5445 39.5804 9.37014 39.5804Z" fill="white"/>
<path d="M18.0011 52.1347H4.4007C3.96479 52.1347 3.70325 51.7859 3.70325 51.4372V44.5498C3.70325 44.1139 4.05197 43.8524 4.4007 43.8524H18.0882C18.5241 43.8524 18.7857 44.2011 18.7857 44.5498V51.4372C18.6985 51.7859 18.437 52.1347 18.0011 52.1347Z" fill="#989FB0"/>
<path opacity="0.8" d="M18.0011 62.422H4.4007C3.96479 62.422 3.70325 62.0733 3.70325 61.7246V54.8372C3.70325 54.4013 4.05197 54.1397 4.4007 54.1397H18.0882C18.5241 54.1397 18.7857 54.4885 18.7857 54.8372V61.7246C18.6985 62.0733 18.437 62.422 18.0011 62.422Z" fill="#E5E9F1"/>
<path opacity="0.5" d="M18.0011 72.7094H4.4007C3.96479 72.7094 3.70325 72.3607 3.70325 72.0119V65.1246C3.70325 64.6887 4.05197 64.4271 4.4007 64.4271H18.0882C18.5241 64.4271 18.7857 64.7758 18.7857 65.1246V72.0119C18.6985 72.4478 18.437 72.7094 18.0011 72.7094Z" fill="#E5E9F1"/>
<path opacity="0.3" d="M18.6985 75.5863V76.9812H18.6114H3.70327H3.61609V75.5863C3.61609 75.1504 3.96482 74.8889 4.31354 74.8889H18.0011C18.437 74.8889 18.6985 75.2376 18.6985 75.5863Z" fill="#E5E9F1"/>
<path d="M21.1395 15.78C21.5754 15.78 21.9241 15.4312 21.9241 14.9953C21.9241 14.5594 21.5754 14.2107 21.1395 14.2107C20.7036 14.2107 20.3549 14.5594 20.3549 14.9953C20.3549 15.4312 20.7036 15.78 21.1395 15.78Z" fill="#E3EAF2"/>
<path d="M23.6674 15.78C24.1034 15.78 24.4521 15.4312 24.4521 14.9953C24.4521 14.5594 24.1034 14.2107 23.6674 14.2107C23.2315 14.2107 22.8828 14.5594 22.8828 14.9953C22.8828 15.4312 23.2315 15.78 23.6674 15.78Z" fill="#E3EAF2"/>
<path d="M26.1961 15.78C26.632 15.78 26.9808 15.4312 26.9808 14.9953C26.9808 14.5594 26.632 14.2107 26.1961 14.2107C25.7602 14.2107 25.4115 14.5594 25.4115 14.9953C25.4115 15.4312 25.7602 15.78 26.1961 15.78Z" fill="#E3EAF2"/>
<path d="M104.933 64.4645C104.584 65.9466 104.061 67.5158 103.451 68.8235C101.794 72.0493 99.1786 74.5775 95.9529 76.234C92.64 77.8905 88.7168 78.5879 84.7937 77.7161C75.5524 75.7981 69.624 66.7312 71.542 57.4899C73.46 48.2487 82.4397 42.2331 91.681 44.2383C94.9939 44.9357 97.8709 46.5922 100.312 48.8589C104.41 53.0437 106.066 58.8848 104.933 64.4645Z" fill="url(#paint1_linear_2119_10776)"/>
<path d="M89.0942 67.3527L93.6023 62.8446C94.1326 62.3143 94.1326 61.3861 93.6023 60.8558C93.0719 60.3254 92.1438 60.3254 91.5471 60.8558L89.492 62.8446V55.5522C89.492 54.7566 88.829 54.0937 88.0335 54.0937C87.2379 54.0937 86.575 54.7566 86.575 55.5522V62.8446L84.5198 60.8558C83.9895 60.3254 83.0613 60.3254 82.4647 60.8558C82.1332 61.1873 82.0006 61.5187 82.0006 61.8502C82.0006 62.1817 82.1332 62.6458 82.4647 62.8446L86.9727 67.3527C87.1716 67.5516 87.6357 67.8168 87.9672 67.8168C88.2986 67.8168 88.8953 67.6842 89.0942 67.3527Z" fill="white"/>
<path d="M1.27136 78.6455L101.975 78.6455" stroke="#989FB0" stroke-width="1.27485" stroke-miterlimit="10" stroke-linecap="round" stroke-linejoin="round"/>
<path d="M7.79837 34.1833C9.24174 34.1833 10.4118 33.0132 10.4118 31.5699C10.4118 30.1265 9.24174 28.9564 7.79837 28.9564C6.35501 28.9564 5.18494 30.1265 5.18494 31.5699C5.18494 33.0132 6.35501 34.1833 7.79837 34.1833Z" fill="#EAEEF9"/>
<path d="M5.18445 25.7054C6.17016 25.7054 6.96923 24.9063 6.96923 23.9206C6.96923 22.9349 6.17016 22.1358 5.18445 22.1358C4.19874 22.1358 3.39966 22.9349 3.39966 23.9206C3.39966 24.9063 4.19874 25.7054 5.18445 25.7054Z" fill="#EAEEF9"/>
<path d="M79.7791 4.78985C80.7648 4.78985 81.5638 3.99077 81.5638 3.00506C81.5638 2.01935 80.7648 1.22028 79.7791 1.22028C78.7933 1.22028 77.9943 2.01935 77.9943 3.00506C77.9943 3.99077 78.7933 4.78985 79.7791 4.78985Z" fill="#EAEEF9"/>
<path d="M98.6599 40.7572C100.491 40.7572 101.975 39.2732 101.975 37.4426C101.975 35.612 100.491 34.128 98.6599 34.128C96.8293 34.128 95.3453 35.612 95.3453 37.4426C95.3453 39.2732 96.8293 40.7572 98.6599 40.7572Z" fill="#EAEEF9"/>
<defs>
<filter id="filter0_d_2119_10776" x="1.7108" y="2.66555" width="102.761" height="84.6276" filterUnits="userSpaceOnUse" color-interpolation-filters="sRGB">
<feFlood flood-opacity="0" result="BackgroundImageFix"/>
<feColorMatrix in="SourceAlpha" type="matrix" values="0 0 0 0 0 0 0 0 0 0 0 0 0 0 0 0 0 0 127 0" result="hardAlpha"/>
<feOffset dy="7.01167"/>
<feGaussianBlur stdDeviation="7.01167"/>
<feColorMatrix type="matrix" values="0 0 0 0 0.397708 0 0 0 0 0.47749 0 0 0 0 0.575 0 0 0 0.27 0"/>
<feBlend mode="normal" in2="BackgroundImageFix" result="effect1_dropShadow_2119_10776"/>
<feBlend mode="normal" in="SourceGraphic" in2="effect1_dropShadow_2119_10776" result="shape"/>
</filter>
<linearGradient id="paint0_linear_2119_10776" x1="52.881" y1="78.1637" x2="52.881" y2="65.7493" gradientUnits="userSpaceOnUse">
<stop stop-color="#E8ECF5"/>
<stop offset="0.9913" stop-color="#BDC4D7"/>
</linearGradient>
<linearGradient id="paint1_linear_2119_10776" x1="71.166" y1="60.9767" x2="105.287" y2="60.9767" gradientUnits="userSpaceOnUse">
<stop stop-color="#B0BACC"/>
<stop offset="1" stop-color="#969EAE"/>
</linearGradient>
</defs>
</svg>
